<?xml version="1.0" encoding="UTF-8"?>
<svg width="64" height="64" viewBox="0 0 512 512" fill="none" xmlns="http://www.w3.org/2000/svg" role="img" aria-label="웹사이트 견적 자동 생성기 파비콘">
  <rect width="512" height="512" rx="120" fill="#2563EB"/>
  <path d="M154 176C154 158.327 168.327 144 186 144H326C343.673 144 358 158.327 358 176V336C358 353.673 343.673 368 326 368H186C168.327 368 154 353.673 154 336V176Z" fill="white" fill-opacity="0.12"/>
  <path d="M186 184H326C329.314 184 332 186.686 332 190V206C332 209.314 329.314 212 326 212H186C182.686 212 180 209.314 180 206V190C180 186.686 182.686 184 186 184Z" fill="white"/>
  <path d="M186 236H290C293.314 236 296 238.686 296 242V258C296 261.314 293.314 264 290 264H186C182.686 264 180 261.314 180 258V242C180 238.686 182.686 236 186 236Z" fill="white" fill-opacity="0.9"/>
  <path d="M186 288H270C273.314 288 276 290.686 276 294V310C276 313.314 273.314 316 270 316H186C182.686 316 180 313.314 180 310V294C180 290.686 182.686 288 186 288Z" fill="white" fill-opacity="0.78"/>
  <circle cx="360" cy="176" r="28" fill="#DBEAFE"/>
  <path d="M360 160V192M344 176H376" stroke="#2563EB" stroke-width="8" stroke-linecap="round"/>
</svg>
