<?xml version="1.0" encoding="UTF-8"?>
<svg width="1200" height="630" viewBox="0 0 1200 630" fill="none" xmlns="http://www.w3.org/2000/svg" role="img" aria-label="웹사이트 견적 자동 생성기">
  <defs>
    <linearGradient id="bg" x1="103" y1="57" x2="1097" y2="573" gradientUnits="userSpaceOnUse">
      <stop stop-color="#EFF6FF" />
      <stop offset="0.48" stop-color="#FFFFFF" />
      <stop offset="1" stop-color="#DBEAFE" />
    </linearGradient>
    <linearGradient id="accent" x1="762" y1="118" x2="1044" y2="500" gradientUnits="userSpaceOnUse">
      <stop stop-color="#2563EB" />
      <stop offset="1" stop-color="#1D4ED8" />
    </linearGradient>
  </defs>
  <rect width="1200" height="630" rx="48" fill="url(#bg)" />
  <circle cx="1014" cy="146" r="108" fill="#BFDBFE" fill-opacity="0.6" />
  <circle cx="1084" cy="468" r="152" fill="#93C5FD" fill-opacity="0.25" />
  <rect x="102" y="104" width="420" height="422" rx="36" fill="#FFFFFF" stroke="#DBEAFE" stroke-width="4" />
  <rect x="144" y="146" width="180" height="20" rx="10" fill="#93C5FD" />
  <rect x="144" y="186" width="300" height="16" rx="8" fill="#E5E7EB" />
  <rect x="144" y="218" width="260" height="16" rx="8" fill="#E5E7EB" />
  <rect x="144" y="282" width="332" height="100" rx="24" fill="#EFF6FF" />
  <rect x="144" y="402" width="140" height="52" rx="16" fill="#2563EB" />
  <rect x="300" y="402" width="176" height="52" rx="16" fill="#DBEAFE" />
  <path d="M186 314H302M186 346H250" stroke="#2563EB" stroke-width="14" stroke-linecap="round" />
  <rect x="618" y="152" width="390" height="326" rx="36" fill="url(#accent)" />
  <path d="M674 212H926C932.627 212 938 217.373 938 224V250C938 256.627 932.627 262 926 262H674C667.373 262 662 256.627 662 250V224C662 217.373 667.373 212 674 212Z" fill="white" fill-opacity="0.18" />
  <path d="M674 286H842C848.627 286 854 291.373 854 298V324C854 330.627 848.627 336 842 336H674C667.373 336 662 330.627 662 324V298C662 291.373 667.373 286 674 286Z" fill="white" fill-opacity="0.28" />
  <path d="M674 360H790C796.627 360 802 365.373 802 372V398C802 404.627 796.627 410 790 410H674C667.373 410 662 404.627 662 398V372C662 365.373 667.373 360 674 360Z" fill="white" fill-opacity="0.4" />
  <circle cx="936" cy="378" r="46" fill="#DBEAFE" />
  <path d="M936 352V404M910 378H962" stroke="#2563EB" stroke-width="12" stroke-linecap="round" />
  <text x="144" y="548" fill="#0F172A" font-family="Noto Sans KR, sans-serif" font-size="56" font-weight="700">웹사이트 견적 자동 생성기</text>
  <text x="144" y="596" fill="#334155" font-family="Noto Sans KR, sans-serif" font-size="24" font-weight="500">의뢰 생성 · 비용 계산 · 전문가 매칭을 한 번에</text>
</svg>
